<svg width="32" height="32" viewBox="0 0 32 32" fill="none" xmlns="http://www.w3.org/2000/svg">
<g clip-path="url(#clip0_35_1329)">
<path d="M8.99997 16.45C8.35563 16.3121 7.79179 15.9254 7.43107 15.374C7.07035 14.8225 6.94192 14.151 7.07372 13.5054C7.20551 12.8597 7.58687 12.2923 8.13485 11.9263C8.68283 11.5604 9.35313 11.4256 9.99997 11.5513L12.6012 12.0513C12.9255 12.1143 13.234 12.2409 13.509 12.4238C13.784 12.6067 14.0201 12.8423 14.2035 13.117C14.3869 13.3917 14.5141 13.7 14.5777 14.0241C14.6413 14.3483 14.64 14.6818 14.5739 15.0054C14.5079 15.329 14.3783 15.6364 14.1928 15.9096C14.0073 16.1829 13.7694 16.4167 13.493 16.5975C13.2166 16.7783 12.9071 16.9026 12.5824 16.9631C12.2577 17.0236 11.9242 17.0191 11.6012 16.95L8.99997 16.45Z" stroke="#009B80" stroke-width="1.5" stroke-linecap="round" stroke-linejoin="round"/>
<path d="M7 19.09V20C6.99997 21.1877 7.23502 22.3637 7.6916 23.4601C8.14819 24.5566 8.81728 25.5518 9.6603 26.3884C10.5033 27.225 11.5036 27.8865 12.6035 28.3348C13.7034 28.783 14.8811 29.0091 16.0688 29C21.0313 28.9625 25 24.85 25 19.8875V19.47C25 18.0828 24.5194 16.7385 23.64 15.6658C22.7605 14.5931 21.5365 13.8582 20.1763 13.5863L17.5 13.0513C16.8532 12.9256 16.1829 13.0604 15.6349 13.4263C15.0869 13.7923 14.7055 14.3597 14.5737 15.0054C14.442 15.651 14.5704 16.3225 14.9311 16.874C15.2918 17.4254 15.8557 17.8121 16.5 17.95L18.4212 18.3338C18.0652 18.9916 17.9292 19.7463 18.0334 20.4871C18.1375 21.2279 18.4763 21.9158 19 22.45" stroke="#009B80" stroke-width="1.5" stroke-linecap="round" stroke-linejoin="round"/>
<path d="M8.99997 21.5399C8.35563 21.4019 7.79179 21.0152 7.43107 20.4638C7.07035 19.9124 6.94192 19.2408 7.07372 18.5952C7.20551 17.9496 7.58687 17.3821 8.13485 17.0162C8.68283 16.6502 9.35313 16.5154 9.99997 16.6411L11.25 16.8911C11.8998 17.0237 12.4702 17.409 12.8359 17.9622C13.2016 18.5155 13.3326 19.1913 13.2 19.8411C13.0674 20.4909 12.6821 21.0614 12.1288 21.4271C11.5756 21.7928 10.8998 21.9237 10.25 21.7911L8.99997 21.5399Z" stroke="#009B80" stroke-width="1.5" stroke-linecap="round" stroke-linejoin="round"/>
<path d="M12.6712 12.066L11.0862 6.14727C10.994 5.82794 10.9664 5.49343 11.005 5.1633C11.0435 4.83317 11.1476 4.51404 11.311 4.2246C11.4744 3.93516 11.6939 3.6812 11.9566 3.47759C12.2193 3.27398 12.52 3.1248 12.841 3.03879C13.1621 2.95277 13.4971 2.93163 13.8264 2.97662C14.1557 3.02161 14.4728 3.13181 14.759 3.30079C15.0452 3.46977 15.2949 3.69412 15.4934 3.96073C15.6918 4.22735 15.8352 4.53086 15.9149 4.85353L18.1462 13.1798" stroke="#009B80" stroke-width="1.5" stroke-linecap="round" stroke-linejoin="round"/>
<path d="M18.8174 13.3137L21.0849 4.85371C21.2665 4.22476 21.6876 3.69215 22.2577 3.37032C22.8278 3.04849 23.5014 2.96312 24.1337 3.13254C24.7661 3.30196 25.3067 3.71267 25.6395 4.27641C25.9724 4.84015 26.0708 5.51194 25.9136 6.14746L23.4286 15.4212" stroke="#009B80" stroke-width="1.5" stroke-linecap="round" stroke-linejoin="round"/>
</g>
<defs>
<clipPath id="clip0_35_1329">
<rect width="32" height="32" fill="white"/>
</clipPath>
</defs>
</svg>
