<svg width="45" height="44" viewBox="0 0 45 44" fill="none" xmlns="http://www.w3.org/2000/svg">
<path d="M44.6609 44H0.660889V0H44.6609V44ZM22.6609 1.6543C11.4425 1.65441 2.31616 10.7816 2.31616 22C2.31629 33.2183 11.4424 42.3446 22.6609 42.3447C33.8788 42.3447 43.0065 33.2186 43.0066 22C43.0066 10.7815 33.8789 1.6543 22.6609 1.6543Z" fill="#242726"/>
<path fill-rule="evenodd" clip-rule="evenodd" d="M19.7292 18.439C21.0569 18.439 22.1489 17.4342 22.1489 16.2063C22.1489 14.9794 21.0569 13.9807 19.7292 13.9807C18.388 13.9807 17.3022 14.9794 17.3022 16.2063C17.3022 17.4342 18.3883 18.439 19.7292 18.439Z" fill="#242726"/>
<path fill-rule="evenodd" clip-rule="evenodd" d="M34.8554 17.2898H41.7982V18.7233H40.7025V23.8331L44.9849 21.6826L45 25.4364H34.8167V23.9532H35.9586L35.9663 18.7233H34.8627L34.8554 17.2898Z" fill="#242726"/>
<path fill-rule="evenodd" clip-rule="evenodd" d="M26.0725 22.1923L25.4356 21.3599L23.2034 22.955L19.7422 18.9231L12.927 23.853L13.9096 24.478L15.5633 23.2721L18.3252 26.4897L17.5142 27.0693L18.2188 27.8906L26.0725 22.1923Z" fill="#242726"/>
<path fill-rule="evenodd" clip-rule="evenodd" d="M4.5261 17.29H11.4619V18.7231H10.3737V23.8329L14.656 21.6828L14.6632 25.4362H4.48755V23.9596H5.62155L5.62951 18.7231H4.51888L4.5261 17.29ZM31.2815 25.4362H24.0518V23.9961H25.2788L25.2554 18.7877H24.0284V17.375H31.3201C33.4339 17.3679 35.1155 18.7233 35.1391 21.3918C35.123 24.144 33.2563 25.4362 31.2815 25.4362ZM29.8384 22.9175C30.6792 22.9105 31.3815 22.4703 31.3892 21.2856C31.3892 20.1356 30.6646 19.6318 29.8543 19.6318L29.8384 22.9175Z" fill="#242726"/>
</svg>
