<svg width="27" height="26" viewBox="0 0 27 26" fill="none" xmlns="http://www.w3.org/2000/svg">
<path d="M6.99994 24.9999C6.73473 24.9999 6.48037 24.8946 6.29284 24.707C6.1053 24.5195 5.99994 24.2651 5.99994 23.9999V18.6637C5.46648 18.9161 4.87786 19.0295 4.2888 18.9934C3.69975 18.9572 3.12939 18.7727 2.63077 18.457C2.13215 18.1413 1.72145 17.7047 1.43687 17.1877C1.15228 16.6707 1.00305 16.0901 1.00305 15.4999C1.00305 14.9098 1.15228 14.3292 1.43687 13.8122C1.72145 13.2952 2.13215 12.8585 2.63077 12.5428C3.12939 12.2271 3.69975 12.0426 4.2888 12.0065C4.87786 11.9704 5.46648 12.0838 5.99994 12.3362V6.99992C5.99994 6.7347 6.1053 6.48035 6.29284 6.29281C6.48037 6.10528 6.73473 5.99992 6.99994 5.99992H12.8362C12.5835 5.46645 12.4699 4.87774 12.5058 4.28855C12.5418 3.69936 12.7261 3.12884 13.0418 2.63004C13.3575 2.13125 13.7942 1.7204 14.3112 1.4357C14.8283 1.151 15.409 1.00171 15.9993 1.00171C16.5896 1.00171 17.1703 1.151 17.6874 1.4357C18.2045 1.7204 18.6412 2.13125 18.9568 2.63004C19.2725 3.12884 19.4569 3.69936 19.4928 4.28855C19.5288 4.87774 19.4151 5.46645 19.1624 5.99992H24.9999C25.2652 5.99992 25.5195 6.10528 25.7071 6.29281C25.8946 6.48035 25.9999 6.7347 25.9999 6.99992V12.3362C25.4665 12.0838 24.8779 11.9704 24.2888 12.0065C23.6997 12.0426 23.1294 12.2271 22.6308 12.5428C22.1321 12.8585 21.7215 13.2952 21.4369 13.8122C21.1523 14.3292 21.0031 14.9098 21.0031 15.4999C21.0031 16.0901 21.1523 16.6707 21.4369 17.1877C21.7215 17.7047 22.1321 18.1413 22.6308 18.457C23.1294 18.7727 23.6997 18.9572 24.2888 18.9934C24.8779 19.0295 25.4665 18.9161 25.9999 18.6637V23.9999C25.9999 24.2651 25.8946 24.5195 25.7071 24.707C25.5195 24.8946 25.2652 24.9999 24.9999 24.9999H6.99994Z" stroke="#80B301" stroke-width="1.5" stroke-linecap="round" stroke-linejoin="round"/>
</svg>
