<svg width="41" height="31" viewBox="0 0 41 31" fill="none" xmlns="http://www.w3.org/2000/svg">
<g clip-path="url(#clip0_35_837)">
<path d="M40.9948 13.3111H26.0854V9.50854H40.9948V13.3111Z" fill="#E669A2"/>
<path d="M39.0583 13.311H26.0854V3.80054H39.0583V13.311Z" fill="#F3BE26"/>
<path d="M33.6986 13.311H26.0854V0H33.6986V13.311Z" fill="#EE9C34"/>
<path d="M35.1964 13.3111H26.0854V1.48535H35.1964V13.3111Z" fill="#F3BC87"/>
<path d="M26.0833 1.48755V13.3098H33.6977V1.48755H26.0833Z" fill="#E3721C"/>
<path d="M18.4512 13.311H26.0854V15.2125H18.4512V13.311Z" fill="#AD1B02"/>
<path d="M26.0833 3.79834V13.3097H35.2006V3.79834H26.0833Z" fill="#E88D14"/>
<path d="M26.0833 3.79834V13.3097H33.6977V3.79834H26.0833Z" fill="#D85604"/>
<path d="M30.8463 13.3111H26.0854V7.60278H30.8463V13.3111Z" fill="#C14303"/>
<path d="M26.0833 9.51123V13.3098H39.0625V9.51123H26.0833Z" fill="#DB4E18"/>
<path d="M26.0833 9.51123V13.3098H35.2006V9.51123H26.0833Z" fill="#D1390D"/>
<path d="M26.0833 9.51123V13.3098H33.6977V9.51123H26.0833Z" fill="#C22303"/>
<path d="M26.0833 9.51123V13.3098H30.8509V9.51123H26.0833Z" fill="#AD1B02"/>
<path d="M27.7452 20.4728C26.4463 20.703 25.7535 21.6809 25.7535 23.3779C25.7535 25.1037 26.6772 26.2542 28.0339 26.2542C28.6978 26.2542 29.2751 26.0241 30.4874 25.4201V26.8295C29.0153 27.5197 28.1493 27.6923 26.9947 27.6923C25.6958 27.6923 24.772 27.376 24.0504 26.5994C23.2998 25.8515 22.8957 24.8736 22.8957 23.7518C22.8957 21.307 24.7431 19.6099 27.4276 19.6099C29.1885 19.6099 30.4297 20.4441 30.4297 21.6234C30.4297 22.4 29.8523 22.9465 29.0153 22.9465C28.5823 22.9465 28.2358 22.8027 27.7452 22.5438M21.2504 23.7518C22.4339 22.2849 22.8669 21.6809 22.8669 20.9618C22.8669 20.2427 22.2896 19.6099 21.4813 19.6099C21.0195 19.6099 20.5865 19.8688 20.3845 20.0989V23.119L18.4504 25.7076V19.8401H16.603L13.5432 24.8736V19.8401H12.504L9.70398 20.4729V21.1919L11.2339 21.3357V27.5773H13.1679L16.1122 22.7451V27.5773H18.2771M3.84429 26.5994H4.27726C5.83597 26.5994 6.70195 25.6502 6.70195 23.7518C6.70195 22.1699 6.00923 21.307 4.71019 21.307C4.53701 21.307 4.27722 21.3357 3.84425 21.422V26.5993L3.84429 26.5994ZM3.84429 29.9934L5.11435 30.281V31.0001H0.120594V30.281L1.27519 29.9934V21.3069H0.00512695V20.5879L3.03602 19.6675H3.84433V20.703C5.25871 19.8401 5.74944 19.6962 6.49992 19.6962C8.17417 19.6962 9.44423 21.2494 9.44423 23.4067C9.44423 25.8803 7.74116 27.5773 5.1432 27.5773C4.85456 27.5773 4.36383 27.5486 3.84429 27.5198" fill="white"/>
</g>
<defs>
<clipPath id="clip0_35_837">
<rect width="41" height="31" fill="white"/>
</clipPath>
</defs>
</svg>
