<svg width="32" height="32" viewBox="0 0 32 32" fill="none" xmlns="http://www.w3.org/2000/svg">
<g clip-path="url(#clip0_35_1213)">
<path d="M16 20C18.7614 20 21 17.7614 21 15C21 12.2386 18.7614 10 16 10C13.2386 10 11 12.2386 11 15C11 17.7614 13.2386 20 16 20Z" stroke="#5864A5" stroke-width="1.5" stroke-linecap="round" stroke-linejoin="round"/>
<path d="M7.9751 24.9214C8.72749 23.4394 9.87555 22.1947 11.292 21.3253C12.7085 20.4558 14.3381 19.9956 16.0001 19.9956C17.6621 19.9956 19.2917 20.4558 20.7082 21.3253C22.1246 22.1947 23.2727 23.4394 24.0251 24.9214" stroke="#5864A5" stroke-width="1.5" stroke-linecap="round" stroke-linejoin="round"/>
<path d="M27.8337 14.0001C28.2556 16.5067 27.8699 19.0826 26.7324 21.3558C25.5948 23.629 23.7642 25.4818 21.5049 26.6468C19.2456 27.8117 16.6746 28.2285 14.163 27.8369C11.6514 27.4453 9.32924 26.2656 7.53182 24.4682C5.7344 22.6708 4.55474 20.3486 4.16315 17.8371C3.77157 15.3255 4.18834 12.7544 5.35328 10.4951C6.51822 8.23585 8.37105 6.40526 10.6442 5.26769C12.9174 4.13011 15.4933 3.74442 18 4.1663" stroke="#5864A5" stroke-width="1.5" stroke-linecap="round" stroke-linejoin="round"/>
<path d="M23 7L25 9L29 5" stroke="#5864A5" stroke-width="1.5" stroke-linecap="round" stroke-linejoin="round"/>
</g>
<defs>
<clipPath id="clip0_35_1213">
<rect width="32" height="32" fill="white"/>
</clipPath>
</defs>
</svg>
