<svg width="26" height="20" viewBox="0 0 26 20" fill="none" xmlns="http://www.w3.org/2000/svg">
<path d="M11.5 2.71265V13.7126C11.4983 15.3034 10.8657 16.8286 9.74081 17.9535C8.61595 19.0783 7.09079 19.711 5.5 19.7126C5.23478 19.7126 4.98043 19.6073 4.79289 19.4198C4.60536 19.2322 4.5 18.9779 4.5 18.7126C4.5 18.4474 4.60536 18.1931 4.79289 18.0055C4.98043 17.818 5.23478 17.7126 5.5 17.7126C6.56087 17.7126 7.57828 17.2912 8.32843 16.5411C9.07857 15.7909 9.5 14.7735 9.5 13.7126V12.7126H2C1.46957 12.7126 0.960859 12.5019 0.585786 12.1269C0.210714 11.7518 0 11.2431 0 10.7126V2.71265C0 2.18221 0.210714 1.67351 0.585786 1.29843C0.960859 0.92336 1.46957 0.712646 2 0.712646H9.5C10.0304 0.712646 10.5391 0.92336 10.9142 1.29843C11.2893 1.67351 11.5 2.18221 11.5 2.71265ZM24 0.712646H16.5C15.9696 0.712646 15.4609 0.92336 15.0858 1.29843C14.7107 1.67351 14.5 2.18221 14.5 2.71265V10.7126C14.5 11.2431 14.7107 11.7518 15.0858 12.1269C15.4609 12.5019 15.9696 12.7126 16.5 12.7126H24V13.7126C24 14.7735 23.5786 15.7909 22.8284 16.5411C22.0783 17.2912 21.0609 17.7126 20 17.7126C19.7348 17.7126 19.4804 17.818 19.2929 18.0055C19.1054 18.1931 19 18.4474 19 18.7126C19 18.9779 19.1054 19.2322 19.2929 19.4198C19.4804 19.6073 19.7348 19.7126 20 19.7126C21.5908 19.711 23.116 19.0783 24.2408 17.9535C25.3657 16.8286 25.9983 15.3034 26 13.7126V2.71265C26 2.18221 25.7893 1.67351 25.4142 1.29843C25.0391 0.92336 24.5304 0.712646 24 0.712646Z" fill="#80B302"/>
</svg>
