<svg width="119" height="24" viewBox="0 0 119 24" fill="none" xmlns="http://www.w3.org/2000/svg">
<path d="M34.2876 11.8153V23.6307H36.5744H38.8613V11.8153V0H36.5744H34.2876V11.8153Z" fill="#F3FFCD"/>
<path d="M6.8838 1.92476C2.69126 2.32495 0.232914 4.42122 0.0232869 7.73713C-0.224454 11.5866 1.47162 13.3971 6.69323 14.8644C9.22781 15.5696 10.0091 15.9698 10.295 16.732C10.5618 17.4181 10.3903 18.6187 9.95197 19.0951C9.18969 19.9336 8.57987 20.1051 6.27398 20.1051C4.34922 20.1051 1.73842 19.743 0.652167 19.3238C0.404426 19.2285 0.366313 19.4953 0.366313 21.1151V23.0208L0.957079 23.2305C1.28105 23.3448 2.50069 23.5735 3.66317 23.745C9.17064 24.5454 13.2298 23.1161 14.7162 19.8383C15.0211 19.1713 15.0974 18.5806 15.0974 17.3419C15.0974 15.4552 14.7353 14.4261 13.63 13.2827C12.6771 12.3299 11.5337 11.7772 8.75138 10.9578C5.28301 9.94774 4.65413 9.52849 4.65413 8.1945C4.65413 5.77427 7.66514 5.0501 13.4775 6.04106L14.1064 6.13635L14.0492 4.26876L13.9921 2.38212L13.0201 2.1725C11.6099 1.86759 8.67516 1.73419 6.8838 1.92476Z" fill="#F3FFCD"/>
<path d="M21.6149 7.56563C21.31 7.60374 20.4714 7.71808 19.7663 7.83242L18.4705 8.04205V9.81435V11.5676L19.5758 11.3199C21.1003 10.9578 24.2447 10.9768 25.0261 11.3389C25.7883 11.701 26.2838 12.5204 26.2838 13.4161C26.2838 14.1784 26.4744 14.1212 23.1394 14.4643C20.8716 14.6929 19.652 15.1122 18.6229 15.9888C17.6129 16.8654 17.1365 17.8945 17.1365 19.3619C17.1365 20.7531 17.7844 22.2014 18.7373 22.9256C20.6239 24.3739 24.0732 24.2977 25.8455 22.7731C26.2838 22.411 26.665 22.1061 26.7221 22.1061C26.7602 22.1061 26.8555 22.4491 26.9318 22.8684L27.0461 23.6307H28.9518H30.8575V18.1422C30.8575 12.1393 30.7241 11.1483 29.7713 9.70001C29.5045 9.28075 28.8946 8.70904 28.4563 8.4613C27.1414 7.67997 23.9589 7.26071 21.6149 7.56563ZM26.2838 18.3519C26.2838 19.9336 26.2838 19.9336 25.674 20.2957C25.2357 20.5625 24.683 20.6768 23.8445 20.6768C22.7392 20.6768 22.5868 20.6197 22.1675 20.1432C21.1766 18.9808 21.8435 17.3037 23.4062 17.056C23.7874 16.9798 24.2257 16.9035 24.3781 16.8654C24.5306 16.8464 25.0261 16.8083 25.4834 16.7892L26.2838 16.7701V18.3519Z" fill="#F3FFCD"/>
<path d="M67.2182 7.69902C66.5131 7.85148 65.827 8.17545 65.2363 8.63281C64.7408 9.01395 64.2834 9.33792 64.2072 9.33792C64.15 9.33792 64.0166 8.97584 63.9023 8.51847L63.7308 7.71808H61.9203H60.1099L60.0528 15.6648L60.0146 23.6307H62.3015H64.5883V18.1994V12.7491L65.0838 12.2918C66.2082 11.2436 68.0948 11.2436 68.8571 12.2536C69.2382 12.7682 69.2573 13.0731 69.3145 18.2185L69.3907 23.6307H71.6775H73.9644L73.9072 18.1041C73.85 11.8725 73.831 12.0059 75.3174 11.6057C76.3084 11.3389 77.2803 11.5295 77.852 12.1012L78.3093 12.5586V18.1041V23.6307H80.7105H83.1117L83.0355 17.6658C82.9783 12.044 82.9402 11.6629 82.54 10.6529C81.5681 8.21356 79.4528 7.12731 76.6323 7.6228C75.3555 7.83242 73.8119 8.53753 73.2592 9.14735C72.9925 9.45226 72.9162 9.41415 72.2111 8.74716C71.4107 7.98488 69.9624 7.41317 68.8952 7.45128C68.5712 7.45128 67.809 7.56562 67.2182 7.69902Z" fill="#F3FFCD"/>
<path d="M91.268 7.69902C87.59 8.51847 85.7415 11.2055 85.7415 15.722C85.7415 18.4281 86.2369 20.0098 87.59 21.6868C89.0764 23.5163 92.4876 24.431 95.4986 23.8022C99.2719 23.0208 101.178 20.2957 101.178 15.722C101.178 11.9868 100.015 9.64283 97.5568 8.38507C95.7464 7.47033 93.4214 7.22259 91.268 7.69902ZM95.3652 11.6819C96.299 12.6157 96.6802 14.1022 96.5658 16.3128C96.4134 19.0189 95.632 20.2766 94.0312 20.391C92.1065 20.5244 91.1346 19.9336 90.6772 18.3519C90.2961 17.056 90.3532 13.8354 90.7725 12.8635C91.4014 11.4151 91.9159 11.0912 93.631 11.0721C94.6411 11.053 94.7935 11.1102 95.3652 11.6819Z" fill="#F3FFCD"/>
<path d="M111.469 7.67997C110.42 7.92771 109.639 8.3279 108.839 9.03301C108.458 9.37604 108.381 9.37604 108.229 9.14735C108.134 8.9949 108.038 8.68999 108.038 8.48036C108.019 7.67997 107.81 7.60374 105.923 7.66091L104.132 7.71808L104.074 15.6648L104.036 23.6307H106.323H108.61V18.2375C108.61 12.8825 108.61 12.8254 109.048 12.4442C110.02 11.5485 111.564 11.2246 112.688 11.701C113.87 12.1965 113.946 12.5967 113.946 18.4853V23.6307H116.252H118.539L118.482 17.4753C118.424 11.4723 118.405 11.3198 117.967 10.3289C116.938 8.06111 114.365 7.01297 111.469 7.67997Z" fill="#F3FFCD"/>
<path d="M47.9134 7.87053C45.7028 8.61375 43.6256 10.4242 42.6727 12.4251C39.8904 18.3138 44.2545 24.9456 50.2002 23.8403C52.9063 23.3448 55.0979 21.6297 56.3556 19.057C57.0417 17.6468 57.0608 17.5896 57.0608 15.3409C57.0608 13.1112 57.0417 12.9969 56.4128 11.72C55.6315 10.1574 54.4881 8.97583 53.0207 8.27073C52.1441 7.83241 51.6295 7.71807 50.3146 7.67996C49.3236 7.64185 48.3708 7.71807 47.9134 7.87053ZM50.105 10.8625C50.3718 11.1293 50.448 11.377 50.3718 11.7963L50.2574 12.368L51.7439 12.4251L53.2494 12.4823L53.3065 13.9306L53.3637 15.3599L53.9164 15.2837C54.6405 15.1884 55.0598 15.5124 55.0598 16.1794C55.0598 16.8654 54.7358 17.1513 53.9735 17.1513H53.3446V18.2566C53.3446 18.8664 53.2494 19.4572 53.116 19.5906C52.8682 19.8383 46.427 19.9336 45.8362 19.7049C45.6075 19.6096 45.5313 19.3047 45.5313 18.2756V16.9607H46.1602C46.5032 16.9607 46.8843 16.8654 47.0177 16.732C47.6466 16.1031 46.8843 14.9407 45.9696 15.1694C45.5122 15.2837 45.5122 15.2837 45.5694 13.8925L45.6266 12.4823L47.0558 12.387L48.4851 12.2917L48.4279 11.7582C48.3517 11.1293 48.8472 10.4813 49.3808 10.4813C49.5714 10.4813 49.8953 10.6528 50.105 10.8625Z" fill="#F3FFCD"/>
</svg>
